<?xml version="1.0" encoding="UTF-8"?>
<svg version="1.1" xmlns="http://www.w3.org/2000/svg" width="108" height="108">
<path d="M0 0 C9.46974685 9.56901045 11.05280741 24.76839642 11.36328125 37.6328125 C11.1674839 50.33353363 9.4919411 64.05485648 0.69921875 73.88671875 C-12.34440319 85.72488748 -30.53749586 90.01662297 -47.04833984 94.57958984 C-48.98651093 95.1162489 -50.92177624 95.66351198 -52.85400391 96.22119141 C-62.89530265 99.07802136 -72.04727252 99.51961212 -82.44921875 99.4453125 C-84.25519531 99.43854492 -84.25519531 99.43854492 -86.09765625 99.43164062 C-89.04822948 99.419932 -91.99869734 99.40353245 -94.94921875 99.3828125 C-94.94921875 96.3828125 -94.94921875 96.3828125 -93.4453125 94.78125 C-89.53411364 92.58999931 -85.26740145 92.28899751 -80.88085938 91.7421875 C-75.69122193 90.94453001 -73.2450961 89.43133956 -69.94921875 85.3828125 C-56.60160008 63.27581907 -55.15728365 32.15271115 -58.94921875 7.3828125 C-59.53300293 7.36299316 -60.11678711 7.34317383 -60.71826172 7.32275391 C-63.42062143 7.22618389 -66.12234269 7.11705277 -68.82421875 7.0078125 C-69.74203125 6.976875 -70.65984375 6.9459375 -71.60546875 6.9140625 C-88.11557904 6.21645221 -88.11557904 6.21645221 -91.94921875 2.3828125 C-91.94921875 1.0628125 -91.94921875 -0.2571875 -91.94921875 -1.6171875 C-70.80724854 -10.23058277 -18.79802286 -15.59595483 0 0 Z M-46.94921875 3.3828125 C-46.96984375 4.6203125 -46.99046875 5.8578125 -47.01171875 7.1328125 C-47.02912109 8.17695313 -47.02912109 8.17695313 -47.046875 9.2421875 C-47.03329555 11.34032646 -47.03329555 11.34032646 -46.45410156 13.12158203 C-44.22394834 23.10982147 -46.33416187 34.28163345 -47.76171875 44.2578125 C-47.94411646 45.58148357 -48.12607868 46.90521472 -48.30761719 48.22900391 C-49.43398667 56.26211156 -50.72026178 64.22753292 -52.43359375 72.15625 C-53.04395365 75.97562331 -53.03340981 79.51844298 -52.94921875 83.3828125 C-49.01671205 85.34906585 -45.22177372 85.1111472 -40.94921875 84.3828125 C-35.78238377 82.47215343 -30.91851247 79.87157383 -26.02368164 77.36279297 C-23.95306389 76.38462895 -21.88659094 75.63566966 -19.71875 74.90234375 C-12.97176355 72.45424147 -8.70435308 66.54288808 -5.3046875 60.421875 C0.87139141 47.14419527 0.89476163 32.22526714 -3.67578125 18.3515625 C-6.16551615 12.54727254 -9.55818723 7.77644745 -14.94921875 4.3828125 C-24.07321745 1.88838596 -37.75893618 0.31938498 -46.94921875 3.3828125 Z " fill="#000000" transform="translate(95.94921875,7.6171875)"/>
<path d="M0 0 C3.84345809 1.45786341 5.15079935 3.38965588 7 7 C9.82765506 15.48296519 6.64229474 25.11464986 4.1875 33.375 C3.9392749 34.21861084 3.6910498 35.06222168 3.43530273 35.93139648 C1.83765136 41.06797529 -0.16055171 45.42978171 -3 50 C-7.75 49.25 -7.75 49.25 -10 47 C-10.90581097 40.8919719 -9.5172036 35.28181134 -7.6875 29.5 C-5.59578344 22.51556891 -4.06497302 15.60548902 -2.98901367 8.39453125 C-2.45261761 4.94286652 -1.97454617 2.96181925 0 0 Z " fill="#000000" transform="translate(72,24)"/>
</svg>
