<?xml version="1.0" encoding="UTF-8"?>
<svg version="1.1" xmlns="http://www.w3.org/2000/svg" width="107" height="91">
<path d="M0 0 C7.03133735 6.26871941 11.27761631 15.52527256 12.2265625 24.8125 C12.65831904 39.24225818 8.44799693 52.20648833 -1.23046875 62.94140625 C-12.78098591 74.22941166 -26.712414 77.8869037 -42.36572266 77.77368164 C-57.87917064 77.47671236 -72.76201942 72.60819859 -84.11328125 61.63671875 C-91.61893289 53.11178108 -95.71416177 42.62282357 -95.296875 31.2109375 C-94.05589431 19.32812244 -91.2420622 7.40901221 -82.140625 -0.92578125 C-60.1203349 -17.41069567 -21.78522744 -16.45524946 0 0 Z M-77.3359375 11.34765625 C-83.48928188 19.17918546 -85.99655843 28.68834845 -85.01171875 38.48046875 C-82.7017429 47.72037215 -77.41488274 54.45943413 -69.57421875 59.73046875 C-56.92710018 66.71213602 -40.81326879 68.75582485 -26.7109375 65.78515625 C-16.86337405 62.54349636 -9.39348027 56.30928259 -4.01171875 47.48046875 C0.51140213 38.19406129 1.63019685 27.9180202 -0.6015625 17.80859375 C-2.9466056 11.54073661 -7.48104119 7.10203836 -13.01171875 3.48046875 C-22.73138221 -0.83660899 -32.19560042 -1.73483552 -42.69921875 -1.83203125 C-43.72466797 -1.86103516 -44.75011719 -1.89003906 -45.80664062 -1.91992188 C-58.33340223 -2.02279484 -68.57634365 2.37441377 -77.3359375 11.34765625 Z " fill="#000000" transform="translate(95.01171875,12.51953125)"/>
<path d="M0 0 C3.125 1.5625 3.125 1.5625 5 4 C5.5625 7.5625 5.5625 7.5625 5 11 C2.8885341 13.07324933 1.53686128 13.9188161 -1.40234375 14.36328125 C-9.88753252 14.19331599 -9.88753252 14.19331599 -14 12 C-14.8125 8.8125 -14.8125 8.8125 -15 5 C-11.33810564 -0.93479431 -6.38068557 -1.10877487 0 0 Z " fill="#000000" transform="translate(59,35)"/>
</svg>
